<svg xmlns="http://www.w3.org/2000/svg" version="1.1" xmlns:xlink="http://www.w3.org/1999/xlink" xmlns:svgjs="http://svgjs.dev/svgjs" width="100%" height="100%" viewBox="0 0 1000 600"><rect width="1000" height="600" x="0" y="0" fill="#ffffff"/><g><rect width="333.3333333333333" height="333.3333333333333" rx="13.333333333333334" ry="13.333333333333334" y="242.9427728873208" fill="c" transform="matrix(0.5663270286428495,0,0,0.5663270286428493,0,68.02711533804289)" x="220.7206268310547"/><path d="M432.402333321339 484.60943061255625L420.28810523486294 451.0623374500072L354.4865040405799 451.0623374500072L342.3722759541038 484.60943061255625L321.600733503099 484.60943061255625L376.12978995190184 334.6094351993665L398.8552401587899 334.6094351993665L453.1738757723438 484.60943061255625L432.402333321339 484.60943061255625ZM360.1077463536593 435.04029385176466L414.6668629217835 435.04029385176466L387.3722745780608 358.8679514916399L360.1077463536593 435.04029385176466Z " fill="#ffffff" transform="matrix(0.5663270286428495,0,0,0.5663270286428493,0,68.02711533804289)"/><path d="M745.1020837942872 483.14829682481843L733.32534546512 450.53579068250946L669.3569082379568 450.53579068250946L657.5801699087897 483.14829682481843L637.3873009622524 483.14829682481843L690.3972347813818 337.3271448085804L712.4895776519782 337.3271448085804L765.2949527408243 483.14829682481843L745.1020837942872 483.14829682481843ZM674.8215486040963 434.96010450522397L727.8607050989805 434.96010450522397L701.326515513661 360.9098441426694L674.8215486040963 434.96010450522397ZM788.0301944780254 336.5089098874472L807.1710470973912 336.5089098874472L807.1710470973912 429.29090540880105Q807.1710470973912 448.84087548873356 816.7560847449516 458.30902243327483Q826.3118997167572 467.77716937781616 843.3487196817806 467.77716937781616L843.3487196817806 467.77716937781616Q860.1809809165206 467.77716937781616 869.766018564081 458.30902243327483Q879.3510562116413 448.84087548873356 879.3510562116413 429.29090540880105L879.3510562116413 429.29090540880105L879.3510562116413 336.5089098874472L898.4919088310072 336.5089098874472L898.4919088310072 429.08634667851777Q898.4919088310072 447.3797417009957 891.1277945408084 459.8870469240317Q883.7636802506097 472.4235748228225 871.2271523518189 478.5311140555668Q858.7198471287828 484.60943061255625 843.1441609514973 484.60943061255625L843.1441609514973 484.60943061255625Q827.5684747742117 484.60943061255625 815.0611695511757 478.5311140555668Q802.5538643281396 472.4235748228225 795.2774180652051 459.8870469240317Q788.0301944780254 447.3797417009957 788.0301944780254 429.08634667851777L788.0301944780254 429.08634667851777L788.0301944780254 336.5089098874472ZM976.1365583113969 336.5089098874472Q1000.0991524302977 336.5089098874472 1017.6912032346615 345.4510486684029Q1035.2540313632705 354.39318744935855 1044.605287604793 370.9916672780606Q1053.9857665220698 387.6193697825174 1053.9857665220698 410.1500527894351L1053.9857665220698 410.1500527894351Q1053.9857665220698 432.6515131205981 1044.605287604793 449.16232492203585Q1035.2540313632705 465.6731367234736 1017.6912032346615 474.410716774146Q1000.0991524302977 483.14829682481843 976.1365583113969 483.14829682481843L976.1365583113969 483.14829682481843L930.4615161067115 483.14829682481843L930.4615161067115 336.5089098874472L976.1365583113969 336.5089098874472ZM976.1365583113969 467.36805191724955Q1004.5409991450209 467.36805191724955 1019.4737864557018 452.3183739035496Q1034.4065737663827 437.2686958898497 1034.4065737663827 410.1500527894351L1034.4065737663827 410.1500527894351Q1034.4065737663827 382.7976282829825 1019.3568957526827 367.4265008359802Q1004.3072177389828 352.055373388978 976.1365583113969 352.055373388978L976.1365583113969 352.055373388978L949.6023687260774 352.055373388978L949.6023687260774 467.36805191724955L976.1365583113969 467.36805191724955ZM1079.23415837418 336.5089098874472L1098.3750109935459 336.5089098874472L1098.3750109935459 483.14829682481843L1079.23415837418 483.14829682481843L1079.23415837418 336.5089098874472ZM1177.4807942616735 484.60943061255625Q1162.957124411559 484.60943061255625 1151.5018355156944 479.466239679719Q1140.0173239440746 474.32304874688174 1133.5006672507639 465.1471285598881Q1126.984010557453 456.00043104864903 1126.7794518271699 444.0191339891986L1126.7794518271699 444.0191339891986L1147.1768795039902 444.0191339891986Q1148.2288958311615 454.3347385306279 1155.7099008243795 461.37740338752434Q1163.1616831418423 468.4200682444208 1177.4807942616735 468.4200682444208L1177.4807942616735 468.4200682444208Q1191.1570065148996 468.4200682444208 1199.0471289686843 461.5819621178076Q1206.9372514224685 454.7438559911945 1206.9372514224685 444.0191339891986L1206.9372514224685 444.0191339891986Q1206.9372514224685 435.6030033718286 1202.3200686532168 430.3429217359723Q1197.6736632082107 425.082840100116 1190.747889054333 422.33590857916886Q1183.792892224701 419.61819973397644 1172.0161538955338 416.46215075246266L1172.0161538955338 416.46215075246266Q1157.4924840454196 412.66320290434425 1148.754903994747 408.86425505622583Q1140.0173239440746 405.09452988386215 1133.8221166840663 396.9998486997944Q1127.6269094240579 388.87594483997196 1127.6269094240579 375.19973258674565L1127.6269094240579 375.19973258674565Q1127.6269094240579 363.2184355272952 1133.705225981047 353.9548473130372Q1139.8127652137914 344.6912590987792 1150.8589366490896 339.664958868961Q1161.9051080843878 334.60943596338797 1176.224219204219 334.60943596338797L1176.224219204219 334.60943596338797Q1196.8262056113226 334.60943596338797 1209.9764097009634 344.9250405048173Q1223.126613790604 355.2114223704918 1224.82152898438 372.2774650112699L1224.82152898438 372.2774650112699L1203.7812024409548 372.2774650112699Q1202.7291861137837 363.8613343938999 1194.9559543630182 357.43234572785326Q1187.153499936498 351.00335706180675 1174.3247452801597 351.00335706180675L1174.3247452801597 351.00335706180675Q1162.3434482207092 351.00335706180675 1154.7455525244723 357.22778699757Q1147.1768795039902 363.4229942575785 1147.1768795039902 374.58605639589575L1147.1768795039902 374.58605639589575Q1147.1768795039902 382.5638468769444 1151.7063942459777 387.6193697825174Q1156.235908987965 392.6748926880904 1162.8694563842948 395.30493350601853Q1169.4737811048699 397.9349743239467 1181.484300840075 401.29558203574373L1181.484300840075 401.29558203574373Q1196.0079706901893 405.29908861414543 1204.8332187681262 409.1857044895281Q1213.6584668460628 413.07232036491087 1219.9705648090903 421.1962242247333Q1226.2826627721179 429.29090540880105 1226.2826627721179 443.1716763923107L1226.2826627721179 443.1716763923107Q1226.2826627721179 453.8963983943065 1220.613463675695 463.36454533884785Q1214.944264579272 472.8326922833892 1203.7812024409548 478.73567278585006Q1192.6181403026376 484.60943061255625 1177.4807942616735 484.60943061255625L1177.4807942616735 484.60943061255625ZM1352.9629621689896 483.14829682481843L1341.1862238398226 450.53579068250946L1277.2177866126594 450.53579068250946L1265.4410482834924 483.14829682481843L1245.2189566612005 483.14829682481843L1298.2581131560846 337.3271448085804L1320.350456026681 337.3271448085804L1373.1558311155268 483.14829682481843L1352.9629621689896 483.14829682481843ZM1282.682426978799 434.96010450522397L1335.6923607979284 434.96010450522397L1309.1873938883637 360.9098441426694L1282.682426978799 434.96010450522397ZM1524.646182228188 337.56092621461846L1545.0436099050085 337.56092621461846L1545.0436099050085 483.14829682481843L1525.9027572856426 483.14829682481843L1525.9027572856426 374.58605639589575L1477.5100062357646 483.14829682481843L1464.0383527128215 483.14829682481843L1415.4410429326604 374.3814976656124L1415.4410429326604 483.14829682481843L1396.3001903132945 483.14829682481843L1396.3001903132945 337.56092621461846L1416.9313993961532 337.56092621461846L1470.7887908121706 457.89990497270827L1524.646182228188 337.56092621461846Z " fill="#000000" transform="matrix(0.5663270286428495,0,0,0.5663270286428493,0,68.02711533804289)"/></g></svg>