<?xml version="1.0" encoding="UTF-8" standalone="no"?>
<!-- Created with Inkscape (http://www.inkscape.org/) -->

<svg
   width="297mm"
   height="210mm"
   viewBox="0 0 1122.5197 793.70081"
   version="1.1"
   id="svg1"
   xml:space="preserve"
   inkscape:version="1.4 (86a8ad7, 2024-10-11)"
   sodipodi:docname="logo invertido.svg"
   inkscape:export-filename="logo invertido1.png"
   inkscape:export-xdpi="300"
   inkscape:export-ydpi="300"
   xmlns:inkscape="http://www.inkscape.org/namespaces/inkscape"
   xmlns:sodipodi="http://sodipodi.sourceforge.net/DTD/sodipodi-0.dtd"
   xmlns="http://www.w3.org/2000/svg"
   xmlns:svg="http://www.w3.org/2000/svg"><sodipodi:namedview
     id="namedview1"
     pagecolor="#ffffff"
     bordercolor="#cccccc"
     borderopacity="1"
     inkscape:showpageshadow="0"
     inkscape:pageopacity="1"
     inkscape:pagecheckerboard="0"
     inkscape:deskcolor="#d1d1d1"
     inkscape:document-units="mm"
     inkscape:zoom="0.68866448"
     inkscape:cx="497.33943"
     inkscape:cy="301.30783"
     inkscape:window-width="1920"
     inkscape:window-height="991"
     inkscape:window-x="-9"
     inkscape:window-y="-9"
     inkscape:window-maximized="1"
     inkscape:current-layer="g3" /><defs
     id="defs1" /><g
     inkscape:label="Camada 1"
     inkscape:groupmode="layer"
     id="layer1"><g
       id="g1"
       transform="matrix(1.2565352,0,0,1.2565352,-63.925641,24.862461)"><g
         id="g3"><rect
           width="333.33334"
           height="333.33334"
           rx="13.333333"
           ry="13.333333"
           y="242.94278"
           fill="c"
           transform="matrix(0.56632703,0,0,0.56632703,0,68.027115)"
           x="220.72063"
           id="rect2"
           style="fill:#ffffff" /><path
           d="M 432.40233,484.60943 420.28811,451.06234 H 354.4865 l -12.11422,33.54709 h -20.77155 l 54.52906,-149.99999 h 22.72545 l 54.31864,149.99999 z m -72.29458,-49.56914 h 54.55911 l -27.29459,-76.17234 z"
           fill="#ffffff"
           transform="matrix(0.56632703,0,0,0.56632703,0,68.027115)"
           id="path2"
           style="fill:#000000" /><path
           d="M 745.10208,483.1483 733.32535,450.53579 H 669.35691 L 657.58017,483.1483 H 637.3873 l 53.00993,-145.82116 h 22.09235 l 52.80537,145.82116 z m -70.28053,-48.1882 h 53.03916 l -26.53419,-74.05026 z m 113.20864,-98.45119 h 19.14086 v 92.782 q 0,19.54997 9.58503,29.01811 9.55582,9.46815 26.59264,9.46815 v 0 q 16.83226,0 26.4173,-9.46815 9.58504,-9.46814 9.58504,-29.01811 v 0 -92.782 h 19.14085 v 92.57744 q 0,18.29339 -7.36412,30.8007 -7.36411,12.53652 -19.90064,18.64406 -12.5073,6.07832 -28.08299,6.07832 v 0 q -15.57569,0 -28.08299,-6.07832 -12.50731,-6.10754 -19.78375,-18.64406 -7.24723,-12.50731 -7.24723,-30.8007 v 0 z m 188.10637,0 q 23.96264,0 41.55464,8.94214 17.5628,8.94214 26.9141,25.54062 9.3805,16.6277 9.3805,39.15838 v 0 q 0,22.50146 -9.3805,39.01227 -9.3513,16.51082 -26.9141,25.2484 -17.592,8.73758 -41.55464,8.73758 v 0 H 930.46152 V 336.50891 Z m 0,130.85914 q 28.40444,0 43.33724,-15.04968 14.9328,-15.04967 14.9328,-42.16832 v 0 q 0,-27.35242 -15.0497,-42.72355 -15.0497,-15.37113 -43.22034,-15.37113 v 0 H 949.60237 V 467.36805 Z M 1079.2342,336.50891 h 19.1408 V 483.1483 h -19.1408 z m 98.2466,148.10052 q -14.5237,0 -25.979,-5.14319 -11.4845,-5.14319 -18.0011,-14.31911 -6.5167,-9.1467 -6.7212,-21.128 v 0 h 20.3974 q 1.052,10.31561 8.533,17.35827 7.4518,7.04267 21.7709,7.04267 v 0 q 13.6762,0 21.5663,-6.83811 7.8902,-6.8381 7.8902,-17.56283 v 0 q 0,-8.41613 -4.6172,-13.67621 -4.6464,-5.26008 -11.5722,-8.00701 -6.955,-2.71771 -18.7317,-5.87376 v 0 q -14.5237,-3.79895 -23.2613,-7.59789 -8.7376,-3.76973 -14.9328,-11.86441 -6.1952,-8.12391 -6.1952,-21.80012 v 0 q 0,-11.98129 6.0783,-21.24488 6.1076,-9.26359 17.1537,-14.28989 11.0462,-5.05552 25.3653,-5.05552 v 0 q 20.602,0 33.7522,10.3156 13.1502,10.28638 14.8451,27.35243 v 0 h -21.0403 q -1.052,-8.41614 -8.8252,-14.84512 -7.8025,-6.42899 -20.6313,-6.42899 v 0 q -11.9813,0 -19.5791,6.22443 -7.5687,6.1952 -7.5687,17.35827 v 0 q 0,7.97779 4.5295,13.03331 4.5295,5.05552 11.1631,7.68556 6.6043,2.63004 18.6148,5.99065 v 0 q 14.5237,4.00351 23.3489,7.89012 8.8253,3.88662 15.1374,12.01052 6.3121,8.09469 6.3121,21.97546 v 0 q 0,10.72472 -5.6692,20.19287 -5.6692,9.46814 -16.8323,15.37112 -11.1631,5.87376 -26.3004,5.87376 z m 175.4822,-1.46113 -11.7768,-32.61251 h -63.9684 l -11.7768,32.61251 h -20.222 l 53.0391,-145.82116 h 22.0924 l 52.8053,145.82116 z m -70.2806,-48.1882 h 53.01 l -26.505,-74.05026 z m 241.9638,-97.39917 h 20.3974 V 483.1483 h -19.1408 V 374.58606 L 1477.51,483.1483 h -13.4716 L 1415.441,374.3815 v 108.7668 h -19.1408 V 337.56093 h 20.6312 l 53.8574,120.33897 z"
           fill="#000000"
           transform="matrix(0.56632703,0,0,0.56632703,0,68.027115)"
           id="path3"
           style="fill:#ffffff" /></g></g></g></svg>
